# xmcd
#
# Track frame offsets:
#	187
#	15230
#	33100
#	49667
#	70815
#
# Disc length: 1120
#
# Revision: 3
# Processed by: cddbd v1.5.1PL0 Copyright (c) Steve Scherf et al.
# Submitted via: CDex 1.30
# Normalized: r1:DSETVAR1,TDELIM( - ),TSWAP
#
DISCID=2f045e05
DTITLE=Various Artist - RCA Single Releases 1992 Vol. 5
DYEAR=1995
DGENRE=Country
TTITLE0=Alabama - Take A Little Trip
TTITLE1=The Oak Ridge Boys - Fall
TTITLE2=Clint Black - We Tell Ourselves
TTITLE3=Clint Black - We Tell Ourselves
TTITLE4=Aaron Tippin - I Wouldn't Have It Any Other Way
EXTD=\nYEAR: 1995  ID3G:   2
EXTT0=
EXTT1=
EXTT2=
EXTT3=
EXTT4=
PLAYORDER=
